<?xml version="1.0" encoding="utf-8"?>
<!-- Generator: Adobe Illustrator 23.0.3, SVG Export Plug-In . SVG Version: 6.00 Build 0)  -->
<svg version="1.1" id="Layer_1" xmlns="http://www.w3.org/2000/svg" xmlns:xlink="http://www.w3.org/1999/xlink" x="0px" y="0px"
	 viewBox="0 0 48.8 48.8" style="enable-background:new 0 0 48.8 48.8;" xml:space="preserve">
<style type="text/css">
	.st0{fill:#404040;}
	.st1{fill:#FFFFFF;}
	.st2{fill:#DDDDDD;}
</style>
<circle class="st0" cx="24.4" cy="24.4" r="24.4"/>
<title>Untitled-1</title>
<g>
	<path class="st1" d="M12.3,35.1c-0.5-0.6-0.5-1.1,0-1.6c0.1-0.1,0.2-0.3,0.4-0.4c0.1-0.1,0.2-0.2,0.3-0.2c0.5-0.5,0.5-0.5,0-1.1
		c-0.4-0.6-0.4-1.1,0.1-1.6c3.2-3.7,6.3-7.3,9.5-11c0.1-0.1,0.1-0.1,0.2-0.3c0.4,1.3,0.9,2.5,1.9,3.4c1,1.1,2.2,1.7,3.6,2.1
		c-0.2,0.2-0.3,0.3-0.5,0.4c-0.3,0.2-0.5,0.4-0.8,0.7c-0.1,0-0.1,0.1-0.2,0.1c-3.3,2.8-6.6,5.5-9.8,8.3c-0.7,0.6-1.2,0.6-1.9-0.1
		c-0.2-0.2-0.3-0.1-0.4,0c-0.3,0.3-0.6,0.6-0.9,0.9C13.3,35.3,12.9,35.4,12.3,35.1z"/>
	<path class="st1" d="M26.5,12.7c2.3-1.3,5.5-0.7,7.3,1.5c1,1.3,1.5,2.7,1.3,4.4c0,0.1,0,0.3,0,0.4c0,0.1,0,0.1,0,0.2
		c0,0.1,0,0.1,0,0.2c-0.2,0.5-0.3,1.1-0.7,1.6c-0.1,0-0.2-0.1-0.3-0.1c-2.1-0.6-3.9-1.8-5.3-3.5C27.5,16,26.8,14.4,26.5,12.7z"/>
	<path class="st1" d="M23.3,19c-0.2-1.4,0-2.8,0.7-4c0.2-0.4,0.5-0.7,0.8-1.1C25,14,25,14.2,25,14.3c0.6,2.2,1.8,4,3.5,5.6
		c1.3,1.2,2.8,2.1,4.5,2.6c-2.1,1.8-5.5,1.8-7.6-0.1C24.2,21.5,23.6,20.4,23.3,19z"/>
	<path class="st2" d="M32.9,22.5c-1.7-0.6-3.2-1.4-4.5-2.6c-1.7-1.5-2.8-3.4-3.5-5.6c0-0.1,0-0.3-0.2-0.4c0.5-0.5,1-0.9,1.6-1.2
		c0.3,1.7,1,3.3,2.1,4.6c1.4,1.7,3.1,2.9,5.3,3.5c0.1,0,0.2,0.1,0.3,0.1C33.9,21.6,33.4,22.1,32.9,22.5z"/>
	<path class="st2" d="M12,34.3c-0.5,0.8-0.4,1.9,0.3,2.6l2.1,2.1c0.8,0.8,2.1,0.8,2.9,0l6.6-6.6c0.4-0.4,1.1-0.4,1.5,0
		c0.4,0.4,0.4,1.1,0,1.5l-7.7,7.7l0.6,0.6l7.7-7.7c0.8-0.8,0.8-2,0-2.8c-0.4-0.4-0.9-0.6-1.4-0.6c-0.5,0-1,0.2-1.4,0.6l-6.6,6.6
		c-0.5,0.5-1.2,0.5-1.6,0l-2.1-2.1c-0.3-0.3-0.4-0.8-0.3-1.3"/>
</g>
</svg>
