<?xml version="1.0" encoding="utf-8"?>
<!-- Generator: Adobe Illustrator 23.0.3, SVG Export Plug-In . SVG Version: 6.00 Build 0)  -->
<svg version="1.1" id="Layer_1" xmlns="http://www.w3.org/2000/svg" xmlns:xlink="http://www.w3.org/1999/xlink" x="0px" y="0px"
	 viewBox="0 0 497.2 497" style="enable-background:new 0 0 497.2 497;" xml:space="preserve">
<style type="text/css">
	.st0{fill:#414141;}
	.st1{fill:#D6D6D6;}
	.st2{fill:#FFFDFD;}
</style>
<path class="st0" d="M248.6,497C112.1,497.9-0.4,385,0,247.8C0.4,111.9,112.2-0.4,249.5,0c135.8,0.4,248.4,112.3,247.6,250
	C496.5,385.5,385,497.9,248.6,497z"/>
<g>
	<path class="st1" d="M248.3,366.8c-48.3,0-96.5-0.2-144.8,0.1c-13.6,0.1-24.5-10.6-24.4-24.5c0.3-58.1,0.3-116.3,0-174.4
		c-0.1-13.8,10.7-24.5,24.4-24.4c96.7,0.3,193.3,0.3,290,0c13.8,0,24.6,10.6,24.6,24.7c-0.4,58.1-0.2,116.3-0.2,174.4
		c0,14.7-9.4,24.1-24.1,24.1C345.3,366.8,296.8,366.8,248.3,366.8z M213.8,204.8c-0.2,0.9-0.3,1.2-0.3,1.6c0,31.9,0,63.8-0.1,95.7
		c0,2.7,0.8,2.7,2.8,1.6c13.7-7.8,27.5-15.6,41.3-23.4c14.8-8.4,29.6-16.7,44.8-25.3C272.7,238,243.4,221.5,213.8,204.8z"/>
	<path class="st1" d="M248.5,382.2c25.5,0,51,0,76.5,0c5.8,0,9,3.5,8.2,8.8c-0.5,3.5-3,5.8-6.5,6.1c-0.6,0.1-1.2,0-1.8,0
		c-50.9,0-101.8,0-152.7,0c-5.1,0-8-2.3-8.4-6.4c-0.5-5,2.4-8.4,7.5-8.5c10.2-0.1,20.5,0,30.7,0C217.5,382.2,233,382.2,248.5,382.2z
		"/>
	<path class="st2" d="M213.8,204.8c29.6,16.7,58.9,33.3,88.6,50.1c-15.2,8.6-30,16.9-44.8,25.3c-13.8,7.8-27.6,15.6-41.3,23.4
		c-2,1.2-2.8,1.2-2.8-1.6c0.1-31.9,0-63.8,0.1-95.7C213.6,206,213.7,205.6,213.8,204.8z"/>
</g>
</svg>
