<?xml version="1.0" encoding="utf-8"?>
<!-- Generator: Adobe Illustrator 23.0.3, SVG Export Plug-In . SVG Version: 6.00 Build 0)  -->
<svg version="1.1" id="Layer_1" xmlns="http://www.w3.org/2000/svg" xmlns:xlink="http://www.w3.org/1999/xlink" x="0px" y="0px"
	 viewBox="0 0 81.5 81.5" style="enable-background:new 0 0 81.5 81.5;" xml:space="preserve">
<g transform="matrix( 1, 0, 0, 1, 0,0) ">
	<g>
		<g id="a">
			<path d="M81.5,80.8v-20c0-0.2-0.1-0.4-0.3-0.6C81.1,60.1,81,60,80.8,60h-20c-0.2,0-0.4,0.1-0.6,0.2c-0.1,0.2-0.2,0.3-0.2,0.6v20
				c0,0.2,0.1,0.4,0.2,0.5c0.2,0.2,0.3,0.2,0.6,0.3h20c0.2,0,0.4-0.1,0.5-0.3C81.4,81.1,81.5,81,81.5,80.8 M30.8,60
				c-0.2,0-0.4,0.1-0.5,0.2c-0.1,0.2-0.2,0.3-0.2,0.6v20c0,0.2,0.1,0.4,0.2,0.5c0.2,0.2,0.3,0.2,0.5,0.3h20c0.2,0,0.4-0.1,0.5-0.3
				c0.2-0.1,0.2-0.3,0.3-0.5v-20c0-0.2-0.1-0.4-0.3-0.6C51.1,60.1,51,60,50.8,60H30.8 M21.5,60.8c0-0.2-0.1-0.4-0.3-0.6
				C21.1,60.1,21,60,20.8,60h-20c-0.2,0-0.4,0.1-0.6,0.2C0.1,60.4,0,60.5,0,60.8v20c0,0.2,0.1,0.4,0.2,0.5c0.2,0.2,0.3,0.2,0.6,0.3
				h20c0.2,0,0.4-0.1,0.5-0.3c0.2-0.1,0.2-0.3,0.3-0.5V60.8 M81.5,30.8c0-0.2-0.1-0.4-0.3-0.5C81.1,30.1,81,30,80.8,30h-20
				c-0.2,0-0.4,0.1-0.6,0.2c-0.1,0.2-0.2,0.3-0.2,0.5v20c0,0.2,0.1,0.4,0.2,0.5c0.2,0.2,0.3,0.2,0.6,0.3h20c0.2,0,0.4-0.1,0.5-0.3
				c0.2-0.1,0.2-0.3,0.3-0.5V30.8 M51.3,30.2C51.1,30.1,51,30,50.8,30h-20c-0.2,0-0.4,0.1-0.5,0.2c-0.1,0.2-0.2,0.3-0.2,0.5v20
				c0,0.2,0.1,0.4,0.2,0.5c0.2,0.2,0.3,0.2,0.5,0.3h20c0.2,0,0.4-0.1,0.5-0.3c0.2-0.1,0.2-0.3,0.3-0.5v-20
				C51.5,30.5,51.4,30.4,51.3,30.2 M0.8,30c-0.2,0-0.4,0.1-0.6,0.2C0.1,30.4,0,30.5,0,30.8v20c0,0.2,0.1,0.4,0.2,0.5
				c0.2,0.2,0.3,0.2,0.6,0.3h20c0.2,0,0.4-0.1,0.5-0.3c0.2-0.1,0.2-0.3,0.3-0.5v-20c0-0.2-0.1-0.4-0.3-0.5C21.1,30.1,21,30,20.8,30
				H0.8 M81.5,20.8v-20c0-0.2-0.1-0.4-0.3-0.6C81.1,0.1,81,0,80.8,0h-20c-0.2,0-0.4,0.1-0.6,0.2C60.1,0.4,60,0.5,60,0.8v20
				c0,0.2,0.1,0.4,0.2,0.5c0.2,0.2,0.3,0.2,0.6,0.3h20c0.2,0,0.4-0.1,0.5-0.3C81.4,21.1,81.5,21,81.5,20.8 M51.3,0.2
				C51.1,0.1,51,0,50.8,0h-20c-0.2,0-0.4,0.1-0.5,0.2C30.1,0.4,30,0.5,30,0.8v20c0,0.2,0.1,0.4,0.2,0.5c0.2,0.2,0.3,0.2,0.5,0.3h20
				c0.2,0,0.4-0.1,0.5-0.3c0.2-0.1,0.2-0.3,0.3-0.5v-20C51.5,0.5,51.4,0.4,51.3,0.2 M21.5,0.8c0-0.2-0.1-0.4-0.3-0.6
				C21.1,0.1,21,0,20.8,0h-20C0.5,0,0.4,0.1,0.2,0.2C0.1,0.4,0,0.5,0,0.8v20c0,0.2,0.1,0.4,0.2,0.5c0.2,0.2,0.3,0.2,0.6,0.3h20
				c0.2,0,0.4-0.1,0.5-0.3c0.2-0.1,0.2-0.3,0.3-0.5V0.8z"/>
		</g>
	</g>
</g>
</svg>
