<?xml version="1.0" encoding="utf-8"?>
<!-- Generator: Adobe Illustrator 23.0.3, SVG Export Plug-In . SVG Version: 6.00 Build 0)  -->
<svg version="1.1" id="Layer_1" xmlns="http://www.w3.org/2000/svg" xmlns:xlink="http://www.w3.org/1999/xlink" x="0px" y="0px"
	 viewBox="0 0 77.5 90" style="enable-background:new 0 0 77.5 90;" xml:space="preserve">
<g>
	<title>alarm</title>
	<desc>Created with Sketch.</desc>
	<g>
		<path d="M36.3,89.6c-3.3-1-5.4-4.2-5.4-7.6v-2.6c0,0,0-0.1,0.1-0.1h15.8v2.8C46.7,87.3,41.7,91.3,36.3,89.6z"/>
	</g>
	<g>
		<path d="M72.4,77.5H5.2c-2.9,0-5.2-2.3-5.2-5.2v-0.9c0-1.4,0.5-2.7,1.5-3.7l7-6.8V38.8c0-13.4,8.4-24.7,21-28.7
			c0.1,0,0.1-0.1,0.1-0.2V9.1c0-3,1.4-5.9,3.9-7.5c6.8-4.4,14.3,0.9,14.3,7.5v0.8C60.5,13.9,69,25.2,69,38.7v22.2l7,6.9
			c1,1,1.5,2.3,1.5,3.7v0.9C77.6,75.2,75.3,77.5,72.4,77.5z"/>
	</g>
</g>
</svg>
